<svg width="0" height="0" class="hidden"><symbol xmlns="http://www.w3.org/2000/svg" viewBox="0 0 48 48" id="steam"><linearGradient id="wI0QYw54EXg5_LlgK1HXYa" x1="24" x2="24" y1="44" y2="4" gradientUnits="userSpaceOnUse"><stop offset="0" stop-color="#0176d0"></stop><stop offset="1" stop-color="#16538c"></stop></linearGradient><path fill="url(#wI0QYw54EXg5_LlgK1HXYa)" d="M44,24c0,11.04-8.96,20-20,20c-8.39,0-15.57-5.16-18.53-12.48c-0.09-0.2-0.16-0.4-0.24-0.6	c-0.07-0.19-0.14-0.39-0.2-0.59C4.36,28.34,4,26.21,4,24c0-0.17,0-0.35,0.02-0.52c-0.01-0.17,0-0.35,0.01-0.52	C4.57,12.4,13.3,4,24,4C35.04,4,44,12.95,44,24z"></path><circle cx="28.5" cy="18.5" r="3.5" fill="#fff"></circle><path d="M28.5,14.5c-2.21,0-4,1.79-4,4c0,2.21,1.79,4,4,4s4-1.79,4-4C32.5,16.29,30.71,14.5,28.5,14.5z M28.5,22c-1.93,0-3.5-1.57-3.5-3.5s1.57-3.5,3.5-3.5s3.5,1.57,3.5,3.5S30.43,22,28.5,22z" opacity=".07"></path><path fill="#fff" d="M28.5,10c-4.69,0-8.5,3.81-8.5,8.5c0,0.18,0.02,0.35,0.03,0.52L17,24c-2.07,0-3.92,0.9-5.2,2.32 L4,24c0,2.21,0.36,4.34,1.03,6.33l5.04,1.61C10.53,35.36,13.45,38,17,38c3.87,0,7-3.13,7-7c0-0.37-0.04-0.73-0.09-1.08l5.06-2.94 C33.44,26.73,37,23.03,37,18.5C37,13.81,33.19,10,28.5,10z M17,36c-2.18,0-4.02-1.41-4.7-3.35l3.75,1.19l0.01-0.01 c0,0.01,0.01,0.01,0.02,0.01c0.14,0.04,0.27,0.08,0.41,0.11C16.66,33.98,16.83,34,17,34c1.66,0,3-1.34,3-3 c0-1.3-0.85-2.41-2.02-2.82c-0.01-0.01-0.03-0.03-0.03-0.03l-3.91-1.16C14.87,26.38,15.89,26,17,26c2.76,0,5,2.24,5,5 S19.76,36,17,36z M28.5,24c-3.04,0-5.5-2.46-5.5-5.5c0-3.04,2.46-5.5,5.5-5.5s5.5,2.46,5.5,5.5C34,21.54,31.54,24,28.5,24z"></path><path d="M33.4,17.49c-0.07-0.32-0.17-0.63-0.29-0.93c-0.06-0.15-0.14-0.3-0.21-0.44 c-0.47-0.85-1.17-1.55-2.02-2.02c-0.14-0.07-0.29-0.15-0.44-0.21c-0.3-0.12-0.61-0.22-0.93-0.29c-0.33-0.06-0.67-0.1-1.01-0.1 s-0.68,0.04-1.01,0.1c-0.32,0.07-0.63,0.17-0.93,0.29c-0.15,0.06-0.3,0.14-0.44,0.21c-0.85,0.47-1.55,1.17-2.02,2.02 c-0.07,0.14-0.15,0.29-0.21,0.44c-0.12,0.3-0.22,0.61-0.29,0.93c-0.06,0.33-0.1,0.67-0.1,1.01c0,0.34,0.04,0.68,0.1,1.01 c0.07,0.32,0.17,0.63,0.29,0.93c0.06,0.15,0.14,0.3,0.21,0.44c0.47,0.85,1.17,1.55,2.02,2.02c0.14,0.07,0.29,0.15,0.44,0.21 c0.3,0.12,0.61,0.22,0.93,0.29c0.33,0.06,0.67,0.1,1.01,0.1s0.68-0.04,1.01-0.1c0.32-0.07,0.63-0.17,0.93-0.29 c0.15-0.06,0.3-0.14,0.44-0.21c0.85-0.47,1.55-1.17,2.02-2.02c0.07-0.14,0.15-0.29,0.21-0.44c0.12-0.3,0.22-0.61,0.29-0.93 c0.06-0.33,0.1-0.67,0.1-1.01C33.5,18.16,33.46,17.82,33.4,17.49z M28.5,22.5c-2.21,0-4-1.79-4-4c0-2.21,1.79-4,4-4s4,1.79,4,4 C32.5,20.71,30.71,22.5,28.5,22.5z M17,26.5c-0.59,0-1.16,0.12-1.7,0.34l2.79,0.83l0.12,0.06l0.01,0.01 c1.37,0.51,2.28,1.81,2.28,3.26c0,1.93-1.57,3.5-3.5,3.5c-0.19,0-0.39-0.02-0.59-0.06h-0.03l-0.01,0.03l-0.47-0.15l-2.63-0.84 c0.82,1.24,2.21,2.02,3.73,2.02c2.48,0,4.5-2.02,4.5-4.5C21.5,28.52,19.48,26.5,17,26.5z M17,26.5c-0.59,0-1.16,0.12-1.7,0.34 l2.79,0.83l0.12,0.06l0.01,0.01c1.37,0.51,2.28,1.81,2.28,3.26c0,1.93-1.57,3.5-3.5,3.5c-0.19,0-0.39-0.02-0.59-0.06h-0.03 l-0.01,0.03l-0.47-0.15l-2.63-0.84c0.82,1.24,2.21,2.02,3.73,2.02c2.48,0,4.5-2.02,4.5-4.5C21.5,28.52,19.48,26.5,17,26.5z M28.5,9 c-5.24,0-9.5,4.26-9.5,9.5c0,0.09,0,0.18,0.01,0.27l-2.58,4.25c-1.84,0.13-3.58,0.9-4.92,2.17l-7.22-2.15l-0.26-0.08 c-0.01,0.17-0.02,0.35-0.01,0.52l0.12,0.04l7.51,2.24c1.34-1.37,3.16-2.18,5.07-2.25l2.8-4.61c-0.01-0.13-0.02-0.27-0.02-0.4 c0-4.96,4.04-9,9-9s9,4.04,9,9c0,4.73-3.67,8.64-8.38,8.97l-4.67,2.72c0.03,0.28,0.05,0.55,0.05,0.81c0,4.14-3.36,7.5-7.5,7.5 c-3.63,0-6.75-2.64-7.38-6.18l-4.39-1.4c0.08,0.2,0.15,0.4,0.24,0.6l3.72,1.19C9.98,36.34,13.23,39,17,39c4.41,0,8-3.59,8-8 c0-0.18-0.01-0.36-0.02-0.54l4.29-2.5c4.92-0.4,8.73-4.51,8.73-9.46C38,13.26,33.74,9,28.5,9z M17,34.5 c-0.19,0-0.39-0.02-0.59-0.06h-0.03l-0.01,0.03l-0.47-0.15l-2.63-0.84c0.82,1.24,2.21,2.02,3.73,2.02c2.48,0,4.5-2.02,4.5-4.5 c0-2.48-2.02-4.5-4.5-4.5c-0.59,0-1.16,0.12-1.7,0.34l2.79,0.83l0.12,0.06l0.01,0.01c1.37,0.51,2.28,1.81,2.28,3.26 C20.5,32.93,18.93,34.5,17,34.5z M17,26.5c-0.59,0-1.16,0.12-1.7,0.34l2.79,0.83l0.12,0.06l0.01,0.01 c1.37,0.51,2.28,1.81,2.28,3.26c0,1.93-1.57,3.5-3.5,3.5c-0.19,0-0.39-0.02-0.59-0.06h-0.03l-0.01,0.03l-0.47-0.15l-2.63-0.84 c0.82,1.24,2.21,2.02,3.73,2.02c2.48,0,4.5-2.02,4.5-4.5C21.5,28.52,19.48,26.5,17,26.5z M17,26.5c-0.59,0-1.16,0.12-1.7,0.34 l2.79,0.83l0.12,0.06l0.01,0.01c1.37,0.51,2.28,1.81,2.28,3.26c0,1.93-1.57,3.5-3.5,3.5c-0.19,0-0.39-0.02-0.59-0.06h-0.03 l-0.01,0.03l-0.47-0.15l-2.63-0.84c0.82,1.24,2.21,2.02,3.73,2.02c2.48,0,4.5-2.02,4.5-4.5C21.5,28.52,19.48,26.5,17,26.5z M17,26.5c-0.59,0-1.16,0.12-1.7,0.34l2.79,0.83l0.12,0.06l0.01,0.01c1.37,0.51,2.28,1.81,2.28,3.26c0,1.93-1.57,3.5-3.5,3.5 c-0.19,0-0.39-0.02-0.59-0.06h-0.03l-0.01,0.03l-0.47-0.15l-2.63-0.84c0.82,1.24,2.21,2.02,3.73,2.02c2.48,0,4.5-2.02,4.5-4.5 C21.5,28.52,19.48,26.5,17,26.5z M17,26.5c-0.59,0-1.16,0.12-1.7,0.34l2.79,0.83l0.12,0.06l0.01,0.01 c1.37,0.51,2.28,1.81,2.28,3.26c0,1.93-1.57,3.5-3.5,3.5c-0.19,0-0.39-0.02-0.59-0.06h-0.03l-0.01,0.03l-0.47-0.15l-2.63-0.84 c0.82,1.24,2.21,2.02,3.73,2.02c2.48,0,4.5-2.02,4.5-4.5C21.5,28.52,19.48,26.5,17,26.5z" opacity=".05"></path><path d="M28.5,9.5c-4.96,0-9,4.04-9,9c0,0.13,0.01,0.27,0.02,0.4l-2.8,4.61c-1.91,0.07-3.73,0.88-5.07,2.25 l-7.51-2.24l-0.12-0.04C4,23.65,4,23.83,4,24l7.8,2.32C13.08,24.9,14.93,24,17,24l3.03-4.98C20.02,18.85,20,18.68,20,18.5 c0-4.69,3.81-8.5,8.5-8.5s8.5,3.81,8.5,8.5c0,4.53-3.56,8.23-8.03,8.48l-5.06,2.94C23.96,30.27,24,30.63,24,31c0,3.87-3.13,7-7,7 c-3.55,0-6.47-2.64-6.93-6.06l-5.04-1.61c0.06,0.2,0.13,0.4,0.2,0.59l4.39,1.4c0.63,3.54,3.75,6.18,7.38,6.18 c4.14,0,7.5-3.36,7.5-7.5c0-0.26-0.02-0.53-0.05-0.81l4.67-2.72c4.71-0.33,8.38-4.24,8.38-8.97C37.5,13.54,33.46,9.5,28.5,9.5z M28.5,24c3.04,0,5.5-2.46,5.5-5.5c0-3.04-2.46-5.5-5.5-5.5S23,15.46,23,18.5C23,21.54,25.46,24,28.5,24z M23.89,20.44 c-0.13-0.3-0.22-0.61-0.29-0.93c-0.06-0.33-0.1-0.67-0.1-1.01c0-0.34,0.04-0.68,0.1-1.01c0.07-0.32,0.16-0.63,0.29-0.93 c0.06-0.15,0.14-0.3,0.21-0.44c0.47-0.85,1.17-1.55,2.02-2.02c0.14-0.07,0.29-0.15,0.44-0.21c0.3-0.13,0.61-0.22,0.93-0.29 c0.33-0.06,0.67-0.1,1.01-0.1s0.68,0.04,1.01,0.1c0.32,0.07,0.63,0.16,0.93,0.29c0.15,0.06,0.3,0.14,0.44,0.21 c0.85,0.47,1.55,1.17,2.02,2.02c0.07,0.14,0.15,0.29,0.21,0.44c0.13,0.3,0.22,0.61,0.29,0.93c0.06,0.33,0.1,0.67,0.1,1.01 c0,0.34-0.04,0.68-0.1,1.01c-0.07,0.32-0.16,0.63-0.29,0.93c-0.06,0.15-0.14,0.3-0.21,0.44c-0.47,0.85-1.17,1.55-2.02,2.02 c-0.14,0.07-0.29,0.15-0.44,0.21c-0.3,0.13-0.61,0.22-0.93,0.29c-0.33,0.06-0.67,0.1-1.01,0.1s-0.68-0.04-1.01-0.1 c-0.32-0.07-0.63-0.16-0.93-0.29c-0.15-0.06-0.3-0.14-0.44-0.21c-0.85-0.47-1.55-1.17-2.02-2.02 C24.03,20.74,23.95,20.59,23.89,20.44z M17,34c-0.17,0-0.34-0.02-0.51-0.05c-0.14-0.03-0.27-0.07-0.41-0.11 c-0.01,0-0.02,0-0.02-0.01l-0.01,0.01l-3.75-1.19C12.98,34.59,14.82,36,17,36c2.76,0,5-2.24,5-5s-2.24-5-5-5 c-1.11,0-2.13,0.38-2.96,0.99l3.91,1.16c0,0,0.02,0.02,0.03,0.03C19.15,28.59,20,29.7,20,31C20,32.66,18.66,34,17,34z M20.5,31 c0-1.45-0.91-2.75-2.28-3.26l-0.01-0.01l-0.12-0.06l-2.79-0.83c0.54-0.22,1.11-0.34,1.7-0.34c2.48,0,4.5,2.02,4.5,4.5 c0,2.48-2.02,4.5-4.5,4.5c-1.52,0-2.91-0.78-3.73-2.02l2.63,0.84l0.47,0.15l0.01-0.03h0.03c0.2,0.04,0.4,0.06,0.59,0.06 C18.93,34.5,20.5,32.93,20.5,31z M17,26c-1.11,0-2.13,0.38-2.96,0.99l3.91,1.16c0,0,0.02,0.02,0.03,0.03C19.15,28.59,20,29.7,20,31 c0,1.66-1.34,3-3,3c-0.17,0-0.34-0.02-0.51-0.05c-0.14-0.03-0.27-0.07-0.41-0.11c-0.01,0-0.02,0-0.02-0.01l-0.01,0.01l-3.75-1.19 C12.98,34.59,14.82,36,17,36c2.76,0,5-2.24,5-5S19.76,26,17,26z M17,35.5c-1.52,0-2.91-0.78-3.73-2.02l2.63,0.84l0.47,0.15 l0.01-0.03h0.03c0.2,0.04,0.4,0.06,0.59,0.06c1.93,0,3.5-1.57,3.5-3.5c0-1.45-0.91-2.75-2.28-3.26l-0.01-0.01l-0.12-0.06 l-2.79-0.83c0.54-0.22,1.11-0.34,1.7-0.34c2.48,0,4.5,2.02,4.5,4.5C21.5,33.48,19.48,35.5,17,35.5z M28.5,13 c-3.04,0-5.5,2.46-5.5,5.5c0,3.04,2.46,5.5,5.5,5.5s5.5-2.46,5.5-5.5C34,15.46,31.54,13,28.5,13z M33.11,20.44 c-0.06,0.15-0.14,0.3-0.21,0.44c-0.47,0.85-1.17,1.55-2.02,2.02c-0.14,0.07-0.29,0.15-0.44,0.21c-0.3,0.13-0.61,0.22-0.93,0.29 c-0.33,0.06-0.67,0.1-1.01,0.1s-0.68-0.04-1.01-0.1c-0.32-0.07-0.63-0.16-0.93-0.29c-0.15-0.06-0.3-0.14-0.44-0.21 c-0.85-0.47-1.55-1.17-2.02-2.02c-0.07-0.14-0.15-0.29-0.21-0.44c-0.13-0.3-0.22-0.61-0.29-0.93c-0.06-0.33-0.1-0.67-0.1-1.01 c0-0.34,0.04-0.68,0.1-1.01c0.07-0.32,0.16-0.63,0.29-0.93c0.06-0.15,0.14-0.3,0.21-0.44c0.47-0.85,1.17-1.55,2.02-2.02 c0.14-0.07,0.29-0.15,0.44-0.21c0.3-0.13,0.61-0.22,0.93-0.29c0.33-0.06,0.67-0.1,1.01-0.1s0.68,0.04,1.01,0.1 c0.32,0.07,0.63,0.16,0.93,0.29c0.15,0.06,0.3,0.14,0.44,0.21c0.85,0.47,1.55,1.17,2.02,2.02c0.07,0.14,0.15,0.29,0.21,0.44 c0.13,0.3,0.22,0.61,0.29,0.93c0.06,0.33,0.1,0.67,0.1,1.01c0,0.34-0.04,0.68-0.1,1.01C33.33,19.83,33.24,20.14,33.11,20.44z M28.5,13c-3.04,0-5.5,2.46-5.5,5.5c0,3.04,2.46,5.5,5.5,5.5s5.5-2.46,5.5-5.5C34,15.46,31.54,13,28.5,13z M33.11,20.44 c-0.06,0.15-0.14,0.3-0.21,0.44c-0.47,0.85-1.17,1.55-2.02,2.02c-0.14,0.07-0.29,0.15-0.44,0.21c-0.3,0.13-0.61,0.22-0.93,0.29 c-0.33,0.06-0.67,0.1-1.01,0.1s-0.68-0.04-1.01-0.1c-0.32-0.07-0.63-0.16-0.93-0.29c-0.15-0.06-0.3-0.14-0.44-0.21 c-0.85-0.47-1.55-1.17-2.02-2.02c-0.07-0.14-0.15-0.29-0.21-0.44c-0.13-0.3-0.22-0.61-0.29-0.93c-0.06-0.33-0.1-0.67-0.1-1.01 c0-0.34,0.04-0.68,0.1-1.01c0.07-0.32,0.16-0.63,0.29-0.93c0.06-0.15,0.14-0.3,0.21-0.44c0.47-0.85,1.17-1.55,2.02-2.02 c0.14-0.07,0.29-0.15,0.44-0.21c0.3-0.13,0.61-0.22,0.93-0.29c0.33-0.06,0.67-0.1,1.01-0.1s0.68,0.04,1.01,0.1 c0.32,0.07,0.63,0.16,0.93,0.29c0.15,0.06,0.3,0.14,0.44,0.21c0.85,0.47,1.55,1.17,2.02,2.02c0.07,0.14,0.15,0.29,0.21,0.44 c0.13,0.3,0.22,0.61,0.29,0.93c0.06,0.33,0.1,0.67,0.1,1.01c0,0.34-0.04,0.68-0.1,1.01C33.33,19.83,33.24,20.14,33.11,20.44z M17,26c-1.11,0-2.13,0.38-2.96,0.99l3.91,1.16c0,0,0.02,0.02,0.03,0.03C19.15,28.59,20,29.7,20,31c0,1.66-1.34,3-3,3 c-0.17,0-0.34-0.02-0.51-0.05c-0.14-0.03-0.27-0.07-0.41-0.11c-0.01,0-0.02,0-0.02-0.01l-0.01,0.01l-3.75-1.19 C12.98,34.59,14.82,36,17,36c2.76,0,5-2.24,5-5S19.76,26,17,26z M17,35.5c-1.52,0-2.91-0.78-3.73-2.02l2.63,0.84l0.47,0.15 l0.01-0.03h0.03c0.2,0.04,0.4,0.06,0.59,0.06c1.93,0,3.5-1.57,3.5-3.5c0-1.45-0.91-2.75-2.28-3.26l-0.01-0.01l-0.12-0.06 l-2.79-0.83c0.54-0.22,1.11-0.34,1.7-0.34c2.48,0,4.5,2.02,4.5,4.5C21.5,33.48,19.48,35.5,17,35.5z" opacity=".07"></path><path d="M28.5,13c-3.04,0-5.5,2.46-5.5,5.5c0,3.04,2.46,5.5,5.5,5.5s5.5-2.46,5.5-5.5 C34,15.46,31.54,13,28.5,13z M33.11,20.44c-0.06,0.15-0.14,0.3-0.21,0.44c-0.47,0.85-1.17,1.55-2.02,2.02 c-0.14,0.07-0.29,0.15-0.44,0.21c-0.3,0.13-0.61,0.22-0.93,0.29c-0.33,0.06-0.67,0.1-1.01,0.1s-0.68-0.04-1.01-0.1 c-0.32-0.07-0.63-0.16-0.93-0.29c-0.15-0.06-0.3-0.14-0.44-0.21c-0.85-0.47-1.55-1.17-2.02-2.02c-0.07-0.14-0.15-0.29-0.21-0.44 c-0.13-0.3-0.22-0.61-0.29-0.93c-0.06-0.33-0.1-0.67-0.1-1.01c0-0.34,0.04-0.68,0.1-1.01c0.07-0.32,0.16-0.63,0.29-0.93 c0.06-0.15,0.14-0.3,0.21-0.44c0.47-0.85,1.17-1.55,2.02-2.02c0.14-0.07,0.29-0.15,0.44-0.21c0.3-0.13,0.61-0.22,0.93-0.29 c0.33-0.06,0.67-0.1,1.01-0.1s0.68,0.04,1.01,0.1c0.32,0.07,0.63,0.16,0.93,0.29c0.15,0.06,0.3,0.14,0.44,0.21 c0.85,0.47,1.55,1.17,2.02,2.02c0.07,0.14,0.15,0.29,0.21,0.44c0.13,0.3,0.22,0.61,0.29,0.93c0.06,0.33,0.1,0.67,0.1,1.01 c0,0.34-0.04,0.68-0.1,1.01C33.33,19.83,33.24,20.14,33.11,20.44z M28.5,13c-3.04,0-5.5,2.46-5.5,5.5c0,3.04,2.46,5.5,5.5,5.5 s5.5-2.46,5.5-5.5C34,15.46,31.54,13,28.5,13z M33.11,20.44c-0.06,0.15-0.14,0.3-0.21,0.44c-0.47,0.85-1.17,1.55-2.02,2.02 c-0.14,0.07-0.29,0.15-0.44,0.21c-0.3,0.13-0.61,0.22-0.93,0.29c-0.33,0.06-0.67,0.1-1.01,0.1s-0.68-0.04-1.01-0.1 c-0.32-0.07-0.63-0.16-0.93-0.29c-0.15-0.06-0.3-0.14-0.44-0.21c-0.85-0.47-1.55-1.17-2.02-2.02c-0.07-0.14-0.15-0.29-0.21-0.44 c-0.13-0.3-0.22-0.61-0.29-0.93c-0.06-0.33-0.1-0.67-0.1-1.01c0-0.34,0.04-0.68,0.1-1.01c0.07-0.32,0.16-0.63,0.29-0.93 c0.06-0.15,0.14-0.3,0.21-0.44c0.47-0.85,1.17-1.55,2.02-2.02c0.14-0.07,0.29-0.15,0.44-0.21c0.3-0.13,0.61-0.22,0.93-0.29 c0.33-0.06,0.67-0.1,1.01-0.1s0.68,0.04,1.01,0.1c0.32,0.07,0.63,0.16,0.93,0.29c0.15,0.06,0.3,0.14,0.44,0.21 c0.85,0.47,1.55,1.17,2.02,2.02c0.07,0.14,0.15,0.29,0.21,0.44c0.13,0.3,0.22,0.61,0.29,0.93c0.06,0.33,0.1,0.67,0.1,1.01 c0,0.34-0.04,0.68-0.1,1.01C33.33,19.83,33.24,20.14,33.11,20.44z M28.5,13c-3.04,0-5.5,2.46-5.5,5.5c0,3.04,2.46,5.5,5.5,5.5 s5.5-2.46,5.5-5.5C34,15.46,31.54,13,28.5,13z M33.11,20.44c-0.06,0.15-0.14,0.3-0.21,0.44c-0.47,0.85-1.17,1.55-2.02,2.02 c-0.14,0.07-0.29,0.15-0.44,0.21c-0.3,0.13-0.61,0.22-0.93,0.29c-0.33,0.06-0.67,0.1-1.01,0.1s-0.68-0.04-1.01-0.1 c-0.32-0.07-0.63-0.16-0.93-0.29c-0.15-0.06-0.3-0.14-0.44-0.21c-0.85-0.47-1.55-1.17-2.02-2.02c-0.07-0.14-0.15-0.29-0.21-0.44 c-0.13-0.3-0.22-0.61-0.29-0.93c-0.06-0.33-0.1-0.67-0.1-1.01c0-0.34,0.04-0.68,0.1-1.01c0.07-0.32,0.16-0.63,0.29-0.93 c0.06-0.15,0.14-0.3,0.21-0.44c0.47-0.85,1.17-1.55,2.02-2.02c0.14-0.07,0.29-0.15,0.44-0.21c0.3-0.13,0.61-0.22,0.93-0.29 c0.33-0.06,0.67-0.1,1.01-0.1s0.68,0.04,1.01,0.1c0.32,0.07,0.63,0.16,0.93,0.29c0.15,0.06,0.3,0.14,0.44,0.21 c0.85,0.47,1.55,1.17,2.02,2.02c0.07,0.14,0.15,0.29,0.21,0.44c0.13,0.3,0.22,0.61,0.29,0.93c0.06,0.33,0.1,0.67,0.1,1.01 c0,0.34-0.04,0.68-0.1,1.01C33.33,19.83,33.24,20.14,33.11,20.44z" opacity=".07"></path></symbol><symbol xmlns="http://www.w3.org/2000/svg" viewBox="0 0 48 48" id="telegram"><path fill="#29b6f6" d="M24 4A20 20 0 1 0 24 44A20 20 0 1 0 24 4Z"></path><path fill="#fff" d="M33.95,15l-3.746,19.126c0,0-0.161,0.874-1.245,0.874c-0.576,0-0.873-0.274-0.873-0.274l-8.114-6.733 l-3.97-2.001l-5.095-1.355c0,0-0.907-0.262-0.907-1.012c0-0.625,0.933-0.923,0.933-0.923l21.316-8.468 c-0.001-0.001,0.651-0.235,1.126-0.234C33.667,14,34,14.125,34,14.5C34,14.75,33.95,15,33.95,15z"></path><path fill="#b0bec5" d="M23,30.505l-3.426,3.374c0,0-0.149,0.115-0.348,0.12c-0.069,0.002-0.143-0.009-0.219-0.043 l0.964-5.965L23,30.505z"></path><path fill="#cfd8dc" d="M29.897,18.196c-0.169-0.22-0.481-0.26-0.701-0.093L16,26c0,0,2.106,5.892,2.427,6.912 c0.322,1.021,0.58,1.045,0.58,1.045l0.964-5.965l9.832-9.096C30.023,18.729,30.064,18.416,29.897,18.196z"></path></symbol><symbol xmlns="http://www.w3.org/2000/svg" viewBox="0 0 48 48" id="vk"><path fill="#1976d2" d="M24 4A20 20 0 1 0 24 44A20 20 0 1 0 24 4Z"></path><path fill="#fff" d="M35.937,18.041c0.046-0.151,0.068-0.291,0.062-0.416C35.984,17.263,35.735,17,35.149,17h-2.618 c-0.661,0-0.966,0.4-1.144,0.801c0,0-1.632,3.359-3.513,5.574c-0.61,0.641-0.92,0.625-1.25,0.625C26.447,24,26,23.786,26,23.199 v-5.185C26,17.32,25.827,17,25.268,17h-4.649C20.212,17,20,17.32,20,17.641c0,0.667,0.898,0.827,1,2.696v3.623 C21,24.84,20.847,25,20.517,25c-0.89,0-2.642-3-3.815-6.932C16.448,17.294,16.194,17,15.533,17h-2.643 C12.127,17,12,17.374,12,17.774c0,0.721,0.6,4.619,3.875,9.101C18.25,30.125,21.379,32,24.149,32c1.678,0,1.85-0.427,1.85-1.094 v-2.972C26,27.133,26.183,27,26.717,27c0.381,0,1.158,0.25,2.658,2c1.73,2.018,2.044,3,3.036,3h2.618 c0.608,0,0.957-0.255,0.971-0.75c0.003-0.126-0.015-0.267-0.056-0.424c-0.194-0.576-1.084-1.984-2.194-3.326 c-0.615-0.743-1.222-1.479-1.501-1.879C32.062,25.36,31.991,25.176,32,25c0.009-0.185,0.105-0.361,0.249-0.607 C32.223,24.393,35.607,19.642,35.937,18.041z"></path></symbol><symbol xmlns="http://www.w3.org/2000/svg" viewBox="0 0 48 48" id="discord"><path fill="#8c9eff" d="M40,12c0,0-4.585-3.588-10-4l-0.488,0.976C34.408,10.174,36.654,11.891,39,14c-4.045-2.065-8.039-4-15-4s-10.955,1.935-15,4c2.346-2.109,5.018-4.015,9.488-5.024L18,8c-5.681,0.537-10,4-10,4s-5.121,7.425-6,22c5.162,5.953,13,6,13,6l1.639-2.185C13.857,36.848,10.715,35.121,8,32c3.238,2.45,8.125,5,16,5s12.762-2.55,16-5c-2.715,3.121-5.857,4.848-8.639,5.815L33,40c0,0,7.838-0.047,13-6C45.121,19.425,40,12,40,12z M17.5,30c-1.933,0-3.5-1.791-3.5-4c0-2.209,1.567-4,3.5-4s3.5,1.791,3.5,4C21,28.209,19.433,30,17.5,30z M30.5,30c-1.933,0-3.5-1.791-3.5-4c0-2.209,1.567-4,3.5-4s3.5,1.791,3.5,4C34,28.209,32.433,30,30.5,30z"></path></symbol>

<symbol xmlns="http://www.w3.org/2000/svg" viewBox="0 0 48 48" id="javascript"><path fill="#ffd600" d="M6,42V6h36v36H6z"></path><path fill="#000001" d="M29.538 32.947c.692 1.124 1.444 2.201 3.037 2.201 1.338 0 2.04-.665 2.04-1.585 0-1.101-.726-1.492-2.198-2.133l-.807-.344c-2.329-.988-3.878-2.226-3.878-4.841 0-2.41 1.845-4.244 4.728-4.244 2.053 0 3.528.711 4.592 2.573l-2.514 1.607c-.553-.988-1.151-1.377-2.078-1.377-.946 0-1.545.597-1.545 1.377 0 .964.6 1.354 1.985 1.951l.807.344C36.452 29.645 38 30.839 38 33.523 38 36.415 35.716 38 32.65 38c-2.999 0-4.702-1.505-5.65-3.368L29.538 32.947zM17.952 33.029c.506.906 1.275 1.603 2.381 1.603 1.058 0 1.667-.418 1.667-2.043V22h3.333v11.101c0 3.367-1.953 4.899-4.805 4.899-2.577 0-4.437-1.746-5.195-3.368L17.952 33.029z"></path></symbol><symbol xmlns="http://www.w3.org/2000/svg" viewBox="0 0 48 48" id="css"><path fill="#0277BD" d="M41,5H7l3,34l14,4l14-4L41,5L41,5z"></path><path fill="#039BE5" d="M24 8L24 39.9 35.2 36.7 37.7 8z"></path><path fill="#FFF" d="M33.1 13L24 13 24 17 28.9 17 28.6 21 24 21 24 25 28.4 25 28.1 29.5 24 30.9 24 35.1 31.9 32.5 32.6 21 32.6 21z"></path><path fill="#EEE" d="M24,13v4h-8.9l-0.3-4H24z M19.4,21l0.2,4H24v-4H19.4z M19.8,27h-4l0.3,5.5l7.9,2.6v-4.2l-4.1-1.4L19.8,27z"></path></symbol><symbol xmlns="http://www.w3.org/2000/svg" viewBox="0 0 64 64" id="faceit"><linearGradient id="JIsZuj6pjvu7fT3Uw14SAa" x1="3.745" x2="3.745" y1="29.851" y2="36.37" gradientUnits="userSpaceOnUse"><stop offset="0" stop-color="#1a6dff"></stop><stop offset="1" stop-color="#c822ff"></stop></linearGradient><path fill="url(#JIsZuj6pjvu7fT3Uw14SAa)" d="M0.666,29.912C0.222,30.073,0,30.287,0,30.553v5.826h3.121v-2.747h4.37v-1.165h-4.37v-1.332 c0-0.166,0.166-0.25,0.499-0.25h3.871v-1.165H1.872C1.434,29.721,1.032,29.785,0.666,29.912z"></path><linearGradient id="JIsZuj6pjvu7fT3Uw14SAb" x1="15.176" x2="15.176" y1="29.851" y2="36.37" gradientUnits="userSpaceOnUse"><stop offset="0" stop-color="#1a6dff"></stop><stop offset="1" stop-color="#c822ff"></stop></linearGradient><path fill="url(#JIsZuj6pjvu7fT3Uw14SAb)" d="M16.366,29.971c-0.382-0.166-0.788-0.25-1.215-0.25c-0.439,0-0.839,0.086-1.203,0.258 c-0.364,0.172-0.618,0.394-0.762,0.666l-3.004,5.735h1.748l0.436-0.832h4.002L16.8,36.38h3.371l-3.022-5.768 C17.009,30.351,16.748,30.136,16.366,29.971z M12.986,34.382l1.383-2.639l1.382,2.639H12.986z"></path><linearGradient id="JIsZuj6pjvu7fT3Uw14SAc" x1="26.959" x2="26.959" y1="29.851" y2="36.37" gradientUnits="userSpaceOnUse"><stop offset="0" stop-color="#1a6dff"></stop><stop offset="1" stop-color="#c822ff"></stop></linearGradient><path fill="url(#JIsZuj6pjvu7fT3Uw14SAc)" d="M24.058,30.699c-0.976,0.652-1.465,1.437-1.465,2.351c0,0.917,0.489,1.7,1.465,2.352 c0.977,0.653,2.15,0.978,3.521,0.978h3.745v-1.165h-3.745c-0.65,0-1.088-0.275-1.315-0.824c-0.122-0.3-0.183-0.747-0.183-1.341 c0-0.593,0.06-1.039,0.183-1.34c0.228-0.549,0.665-0.824,1.315-0.824h3.745v-1.165h-3.745 C26.208,29.721,25.035,30.046,24.058,30.699z"></path><linearGradient id="JIsZuj6pjvu7fT3Uw14SAd" x1="39.035" x2="39.035" y1="29.851" y2="36.37" gradientUnits="userSpaceOnUse"><stop offset="0" stop-color="#1a6dff"></stop><stop offset="1" stop-color="#c822ff"></stop></linearGradient><path fill="url(#JIsZuj6pjvu7fT3Uw14SAd)" d="M35.956,29.912c-0.445,0.161-0.666,0.375-0.666,0.641v4.994c0,0.267,0.221,0.481,0.666,0.641 c0.366,0.128,0.768,0.191,1.206,0.191h5.619v-1.165H38.91c-0.334,0-0.5-0.084-0.5-0.251v-1.331h4.371v-1.165H38.41v-1.332 c0-0.166,0.166-0.25,0.5-0.25h3.871v-1.165h-5.619C36.724,29.721,36.323,29.785,35.956,29.912z"></path><linearGradient id="JIsZuj6pjvu7fT3Uw14SAe" x1="56.047" x2="56.047" y1="29.851" y2="36.37" gradientUnits="userSpaceOnUse"><stop offset="0" stop-color="#1a6dff"></stop><stop offset="1" stop-color="#c822ff"></stop></linearGradient><path fill="url(#JIsZuj6pjvu7fT3Uw14SAe)" d="M48.101,36.328h3.357v-2.275l-3.366-1.358L48.101,36.328z M54.351,29.727v1.166h2.759 c0.327,0,0.491,0.083,0.491,0.25v5.244h3.15v-5.244c0-0.167,0.163-0.25,0.49-0.25H64v-1.166H54.351z"></path><g><linearGradient id="JIsZuj6pjvu7fT3Uw14SAf" x1="48.005" x2="48.005" y1="27.298" y2="30.826" gradientUnits="userSpaceOnUse"><stop offset="0" stop-color="#6dc7ff"></stop><stop offset="1" stop-color="#e6abff"></stop></linearGradient><path fill="url(#JIsZuj6pjvu7fT3Uw14SAf)" d="M51.518,27.054c0-0.056-0.062-0.073-0.09-0.029c-0.856,1.314-1.336,2.064-1.771,2.744 c-1.617,0.001-3.943,0.001-5.101-0.001c-0.063,0-0.089,0.082-0.033,0.103c2.116,0.798,5.175,2.001,6.881,2.675 c0.043,0.018,0.114-0.024,0.114-0.054V27.054z"></path></g></symbol><symbol xmlns="http://www.w3.org/2000/svg" viewBox="0 0 48 48" id="figma"><path fill="#e64a19" d="M26,17h-8c-3.866,0-7-3.134-7-7v0c0-3.866,3.134-7,7-7h8V17z"></path><path fill="#7c4dff" d="M25,31h-7c-3.866,0-7-3.134-7-7v0c0-3.866,3.134-7,7-7h7V31z"></path><path fill="#66bb6a" d="M18,45L18,45c-3.866,0-7-3.134-7-7v0c0-3.866,3.134-7,7-7h7v7C25,41.866,21.866,45,18,45z"></path><path fill="#ff7043" d="M32,17h-7V3h7c3.866,0,7,3.134,7,7v0C39,13.866,35.866,17,32,17z"></path><circle cx="32" cy="24" r="7" fill="#29b6f6"></circle></symbol><symbol xmlns="http://www.w3.org/2000/svg" viewBox="0 0 48 48" id="github"><linearGradient id="rL2wppHyxHVbobwndsT6Ca" x1="4" x2="44" y1="23.508" y2="23.508" gradientUnits="userSpaceOnUse"><stop offset="0" stop-color="#4c4c4c"></stop><stop offset="1" stop-color="#343434"></stop></linearGradient><path fill="url(#rL2wppHyxHVbobwndsT6Ca)" d="M24,4C12.954,4,4,12.954,4,24c0,8.887,5.801,16.411,13.82,19.016h12.36	C38.199,40.411,44,32.887,44,24C44,12.954,35.046,4,24,4z"></path><path d="M30.01,41.996L30,36.198c0-0.939-0.22-1.856-0.642-2.687c5.641-1.133,8.386-4.468,8.386-10.177	c0-2.255-0.665-4.246-1.976-5.92c0.1-0.317,0.174-0.645,0.22-0.981c0.188-1.369-0.023-2.264-0.193-2.984l-0.027-0.116	c-0.186-0.796-0.409-1.364-0.418-1.388l-0.111-0.282l-0.111-0.282l-0.302-0.032l-0.303-0.032c0,0-0.199-0.021-0.501-0.021	c-0.419,0-1.04,0.042-1.627,0.241l-0.196,0.066c-0.74,0.249-1.439,0.485-2.417,1.069c-0.286,0.171-0.599,0.366-0.934,0.584	C27.334,12.881,25.705,12.69,24,12.69c-1.722,0-3.365,0.192-4.889,0.571c-0.339-0.22-0.654-0.417-0.942-0.589	c-0.978-0.584-1.677-0.819-2.417-1.069l-0.196-0.066c-0.585-0.199-1.207-0.241-1.626-0.241c-0.302,0-0.501,0.021-0.501,0.021	l-0.302,0.032l-0.3,0.031l-0.112,0.281l-0.113,0.283c-0.01,0.026-0.233,0.594-0.419,1.391l-0.027,0.115	c-0.17,0.719-0.381,1.615-0.193,2.983c0.048,0.346,0.125,0.685,0.23,1.011c-1.285,1.666-1.936,3.646-1.936,5.89	c0,5.695,2.748,9.028,8.397,10.17c-0.194,0.388-0.345,0.798-0.452,1.224c-0.197,0.067-0.378,0.112-0.538,0.137	c-0.238,0.036-0.487,0.054-0.739,0.054c-0.686,0-1.225-0.134-1.435-0.259c-0.313-0.186-0.872-0.727-1.414-1.518	c-0.463-0.675-1.185-1.558-1.992-1.927c-0.698-0.319-1.437-0.502-2.029-0.502c-0.138,0-0.265,0.01-0.376,0.028	c-0.517,0.082-0.949,0.366-1.184,0.78c-0.203,0.357-0.235,0.773-0.088,1.141c0.219,0.548,0.851,0.985,1.343,1.255	c0.242,0.133,0.765,0.619,1.07,1.109c0.229,0.368,0.335,0.63,0.482,0.992c0.087,0.215,0.183,0.449,0.313,0.732	c0.47,1.022,1.937,1.924,2.103,2.023c0.806,0.483,2.161,0.638,3.157,0.683l0.123,0.003c0,0,0.001,0,0.001,0	c0.24,0,0.57-0.023,1.004-0.071v2.613c0.002,0.529-0.537,0.649-1.25,0.638l0.547,0.184C19.395,43.572,21.645,44,24,44	c2.355,0,4.605-0.428,6.703-1.176l0.703-0.262C30.695,42.538,30.016,42.422,30.01,41.996z" opacity=".05"></path><path d="M30.781,42.797c-0.406,0.047-1.281-0.109-1.281-0.795v-5.804c0-1.094-0.328-2.151-0.936-3.052	c5.915-0.957,8.679-4.093,8.679-9.812c0-2.237-0.686-4.194-2.039-5.822c0.137-0.365,0.233-0.75,0.288-1.147	c0.175-1.276-0.016-2.086-0.184-2.801l-0.027-0.116c-0.178-0.761-0.388-1.297-0.397-1.319l-0.111-0.282l-0.303-0.032	c0,0-0.178-0.019-0.449-0.019c-0.381,0-0.944,0.037-1.466,0.215l-0.196,0.066c-0.714,0.241-1.389,0.468-2.321,1.024	c-0.332,0.198-0.702,0.431-1.101,0.694C27.404,13.394,25.745,13.19,24,13.19c-1.762,0-3.435,0.205-4.979,0.61	c-0.403-0.265-0.775-0.499-1.109-0.699c-0.932-0.556-1.607-0.784-2.321-1.024l-0.196-0.066c-0.521-0.177-1.085-0.215-1.466-0.215	c-0.271,0-0.449,0.019-0.449,0.019l-0.302,0.032l-0.113,0.283c-0.009,0.022-0.219,0.558-0.397,1.319l-0.027,0.116	c-0.169,0.715-0.36,1.524-0.184,2.8c0.056,0.407,0.156,0.801,0.298,1.174c-1.327,1.62-1.999,3.567-1.999,5.795	c0,5.703,2.766,8.838,8.686,9.806c-0.395,0.59-0.671,1.255-0.813,1.964c-0.33,0.13-0.629,0.216-0.891,0.256	c-0.263,0.04-0.537,0.06-0.814,0.06c-0.69,0-1.353-0.129-1.69-0.329c-0.44-0.261-1.057-0.914-1.572-1.665	c-0.35-0.51-1.047-1.417-1.788-1.755c-0.635-0.29-1.298-0.457-1.821-0.457c-0.11,0-0.21,0.008-0.298,0.022	c-0.366,0.058-0.668,0.252-0.828,0.534c-0.128,0.224-0.149,0.483-0.059,0.708c0.179,0.448,0.842,0.85,1.119,1.002	c0.335,0.184,0.919,0.744,1.254,1.284c0.251,0.404,0.37,0.697,0.521,1.067c0.085,0.209,0.178,0.437,0.304,0.712	c0.331,0.719,1.353,1.472,1.905,1.803c0.754,0.452,2.154,0.578,2.922,0.612l0.111,0.002c0.299,0,0.8-0.045,1.495-0.135v3.177	c0,0.779-0.991,0.81-1.234,0.81c-0.031,0,0.503,0.184,0.503,0.184C19.731,43.64,21.822,44,24,44c2.178,0,4.269-0.36,6.231-1.003	C30.231,42.997,30.812,42.793,30.781,42.797z" opacity=".07"></path><path fill="#fff" d="M36.744,23.334c0-2.31-0.782-4.226-2.117-5.728c0.145-0.325,0.296-0.761,0.371-1.309	c0.172-1.25-0.031-2-0.203-2.734s-0.375-1.25-0.375-1.25s-0.922-0.094-1.703,0.172s-1.453,0.469-2.422,1.047	c-0.453,0.27-0.909,0.566-1.27,0.806C27.482,13.91,25.785,13.69,24,13.69c-1.801,0-3.513,0.221-5.067,0.652	c-0.362-0.241-0.821-0.539-1.277-0.811c-0.969-0.578-1.641-0.781-2.422-1.047s-1.703-0.172-1.703-0.172s-0.203,0.516-0.375,1.25	s-0.375,1.484-0.203,2.734c0.077,0.562,0.233,1.006,0.382,1.333c-1.31,1.493-2.078,3.397-2.078,5.704	c0,5.983,3.232,8.714,9.121,9.435c-0.687,0.726-1.148,1.656-1.303,2.691c-0.387,0.17-0.833,0.33-1.262,0.394	c-1.104,0.167-2.271,0-2.833-0.333s-1.229-1.083-1.729-1.813c-0.422-0.616-1.031-1.331-1.583-1.583	c-0.729-0.333-1.438-0.458-1.833-0.396c-0.396,0.063-0.583,0.354-0.5,0.563c0.083,0.208,0.479,0.521,0.896,0.75	c0.417,0.229,1.063,0.854,1.438,1.458c0.418,0.674,0.5,1.063,0.854,1.833c0.249,0.542,1.101,1.219,1.708,1.583	c0.521,0.313,1.562,0.491,2.688,0.542c0.389,0.018,1.308-0.096,2.083-0.206v3.75c0,0.639-0.585,1.125-1.191,1.013	C19.756,43.668,21.833,44,24,44c2.166,0,4.243-0.332,6.19-0.984C29.585,43.127,29,42.641,29,42.002v-5.804	c0-1.329-0.527-2.53-1.373-3.425C33.473,32.071,36.744,29.405,36.744,23.334z M11.239,32.727c-0.154-0.079-0.237-0.225-0.185-0.328	c0.052-0.103,0.22-0.122,0.374-0.043c0.154,0.079,0.237,0.225,0.185,0.328S11.393,32.806,11.239,32.727z M12.451,33.482	c-0.081,0.088-0.255,0.06-0.389-0.062s-0.177-0.293-0.096-0.381c0.081-0.088,0.255-0.06,0.389,0.062S12.532,33.394,12.451,33.482z M13.205,34.732c-0.102,0.072-0.275,0.005-0.386-0.15s-0.118-0.34-0.016-0.412s0.275-0.005,0.386,0.15	C13.299,34.475,13.307,34.66,13.205,34.732z M14.288,35.673c-0.069,0.112-0.265,0.117-0.437,0.012s-0.256-0.281-0.187-0.393	c0.069-0.112,0.265-0.117,0.437-0.012S14.357,35.561,14.288,35.673z M15.312,36.594c-0.213-0.026-0.371-0.159-0.353-0.297	c0.017-0.138,0.204-0.228,0.416-0.202c0.213,0.026,0.371,0.159,0.353,0.297C15.711,36.529,15.525,36.62,15.312,36.594z M16.963,36.833c-0.227-0.013-0.404-0.143-0.395-0.289c0.009-0.146,0.2-0.255,0.427-0.242c0.227,0.013,0.404,0.143,0.395,0.289	C17.381,36.738,17.19,36.846,16.963,36.833z M18.521,36.677c-0.242,0-0.438-0.126-0.438-0.281s0.196-0.281,0.438-0.281	c0.242,0,0.438,0.126,0.438,0.281S18.762,36.677,18.521,36.677z"></path></symbol><symbol xmlns="http://www.w3.org/2000/svg" viewBox="0 0 48 48" id="html"><path fill="#E65100" d="M41,5H7l3,34l14,4l14-4L41,5L41,5z"></path><path fill="#FF6D00" d="M24 8L24 39.9 35.2 36.7 37.7 8z"></path><path fill="#FFF" d="M24,25v-4h8.6l-0.7,11.5L24,35.1v-4.2l4.1-1.4l0.3-4.5H24z M32.9,17l0.3-4H24v4H32.9z"></path><path fill="#EEE" d="M24,30.9v4.2l-7.9-2.6L15.7,27h4l0.2,2.5L24,30.9z M19.1,17H24v-4h-9.1l0.7,12H24v-4h-4.6L19.1,17z"></path></symbol></svg>

<svg class="icon"><use xlink:href="#steam"></use></svg>
<svg class="icon"><use xlink:href="#telegram"></use></svg>
<svg class="icon"><use xlink:href="#vk"></use></svg>
<svg class="icon"><use xlink:href="#discord"></use></svg>
<svg class="icon"><use xlink:href="#javascript"></use></svg>
<svg class="icon"><use xlink:href="#css"></use></svg>
<svg class="icon"><use xlink:href="#faceit"></use></svg>
<svg class="icon"><use xlink:href="#figma"></use></svg>
<svg class="icon"><use xlink:href="#github"></use></svg>
<svg class="icon"><use xlink:href="#html"></use></svg>
